<svg width="109" height="21" viewBox="0 0 109 21" fill="none" xmlns="http://www.w3.org/2000/svg">
<path d="M104.059 6.90738H108.4L104.059 20.4575H100.261L98.0912 13.2217L95.9209 20.4575H92.123L87.7825 6.90738H92.123L94.0762 14.1703L96.1922 6.90738H99.9902L102.106 14.1703L104.059 6.90738Z" fill="#044DFD"/>
<path d="M77.5675 15.3085C78.0378 16.5731 79.1229 17.2055 80.8229 17.2055C81.9261 17.2055 82.7942 16.8622 83.4272 16.1757L86.6826 18.0456C85.3443 19.9065 83.373 20.8369 80.7687 20.8369C78.4899 20.8369 76.6633 20.1594 75.2888 18.8044C73.9324 17.4494 73.2542 15.7421 73.2542 13.6824C73.2542 11.6409 73.9233 9.94261 75.2616 8.5876C76.6181 7.21452 78.3543 6.52798 80.4703 6.52798C82.4416 6.52798 84.0783 7.21452 85.3805 8.5876C86.7007 9.94261 87.3608 11.6409 87.3608 13.6824C87.3608 14.2606 87.3066 14.8026 87.1981 15.3085H77.5675ZM77.4862 12.2732H83.3187C82.9208 10.846 81.9623 10.1323 80.4431 10.1323C78.8697 10.1323 77.884 10.846 77.4862 12.2732Z" fill="#044DFD"/>
<path d="M68.3585 9.31929C68.6117 8.45208 69.1181 7.79264 69.8777 7.34097C70.6554 6.87123 71.5054 6.63637 72.4278 6.63637V11.2434C71.4331 11.0808 70.5017 11.2524 69.6336 11.7583C68.7836 12.2461 68.3585 13.1043 68.3585 14.3328V20.4575H64.2893V6.90737H68.3585V9.31929Z" fill="#044DFD"/>
<path d="M56.3877 20.8369C54.326 20.8369 52.6078 20.1504 51.2333 18.7773C49.8769 17.4042 49.1987 15.7059 49.1987 13.6824C49.1987 11.659 49.8769 9.96068 51.2333 8.5876C52.6078 7.21452 54.326 6.52798 56.3877 6.52798C57.6899 6.52798 58.8835 6.84415 59.9686 7.47649C61.0719 8.10883 61.9219 8.94894 62.5187 9.99681L58.9649 12.0564C58.4766 11.0447 57.5994 10.5388 56.3335 10.5388C55.4473 10.5388 54.7148 10.8369 54.1361 11.4331C53.5573 12.0113 53.268 12.761 53.268 13.6824C53.268 14.6039 53.5573 15.3627 54.1361 15.9589C54.7148 16.537 55.4473 16.8261 56.3335 16.8261C57.6175 16.8261 58.4947 16.3202 58.9649 15.3085L62.5187 17.341C61.9219 18.4069 61.0809 19.2561 59.9958 19.8884C58.9106 20.5207 57.708 20.8369 56.3877 20.8369Z" fill="#044DFD"/>
<path d="M46.574 5.01035C46.1037 5.48009 45.534 5.71496 44.8649 5.71496C44.1957 5.71496 43.617 5.48009 43.1287 5.01035C42.6585 4.52255 42.4233 3.94441 42.4233 3.27594C42.4233 2.60746 42.6585 2.03836 43.1287 1.56862C43.617 1.08082 44.1957 0.836914 44.8649 0.836914C45.534 0.836914 46.1037 1.08082 46.574 1.56862C47.0623 2.03836 47.3064 2.60746 47.3064 3.27594C47.3064 3.94441 47.0623 4.52255 46.574 5.01035ZM42.8303 20.4575V6.90737H46.8995V20.4575H42.8303Z" fill="#044DFD"/>
<path d="M40.5264 10.8098H37.7322V15.6066C37.7322 16.1486 37.9492 16.4919 38.3832 16.6364C38.8173 16.7809 39.5317 16.8261 40.5264 16.7719V20.4575C37.9402 20.7285 36.1497 20.4846 35.155 19.7258C34.1603 18.9489 33.6629 17.5759 33.6629 15.6066V10.8098H31.4927V6.9074H33.6629V4.33288L37.7322 3.11337V6.9074H40.5264V10.8098Z" fill="#044DFD"/>
<path d="M29.2746 5.01035C28.8044 5.48009 28.2347 5.71496 27.5656 5.71496C26.8964 5.71496 26.3177 5.48009 25.8294 5.01035C25.3591 4.52255 25.124 3.94441 25.124 3.27594C25.124 2.60746 25.3591 2.03836 25.8294 1.56862C26.3177 1.08082 26.8964 0.836914 27.5656 0.836914C28.2347 0.836914 28.8044 1.08082 29.2746 1.56862C29.763 2.03836 30.0071 2.60746 30.0071 3.27594C30.0071 3.94441 29.763 4.52255 29.2746 5.01035ZM25.5309 20.4575V6.90737H29.6002V20.4575H25.5309Z" fill="#044DFD"/>
<path d="M19.5592 9.31929C19.8124 8.45208 20.3188 7.79264 21.0784 7.34097C21.8561 6.87123 22.7061 6.63637 23.6285 6.63637V11.2434C22.6338 11.0808 21.7024 11.2524 20.8342 11.7583C19.9842 12.2461 19.5592 13.1043 19.5592 14.3328V20.4575H15.49V6.90737H19.5592V9.31929Z" fill="#044DFD"/>
<path d="M7.58888 20.8369C5.52714 20.8369 3.80902 20.1504 2.43452 18.7773C1.07811 17.4042 0.399902 15.7059 0.399902 13.6824C0.399902 11.659 1.07811 9.96068 2.43452 8.5876C3.80902 7.21452 5.52714 6.52798 7.58888 6.52798C8.89104 6.52798 10.0847 6.84415 11.1698 7.47649C12.273 8.10883 13.123 8.94894 13.7199 9.99681L10.1661 12.0564C9.67775 11.0447 8.80061 10.5388 7.53462 10.5388C6.64844 10.5388 5.91597 10.8369 5.33724 11.4331C4.7585 12.0113 4.46914 12.761 4.46914 13.6824C4.46914 14.6039 4.7585 15.3627 5.33724 15.9589C5.91597 16.537 6.64844 16.8261 7.53462 16.8261C8.81869 16.8261 9.69584 16.3202 10.1661 15.3085L13.7199 17.341C13.123 18.4069 12.2821 19.2561 11.1969 19.8884C10.1118 20.5207 8.90912 20.8369 7.58888 20.8369Z" fill="#044DFD"/>
</svg>
