<svg width="319" height="60" viewBox="0 0 319 60" fill="none" xmlns="http://www.w3.org/2000/svg">
<path d="M306.087 18H318.887L306.087 58H294.887L288.487 36.64L282.087 58H270.887L258.087 18H270.887L276.647 39.44L282.887 18H294.087L300.327 39.44L306.087 18Z" fill="#044DFD"/>
<path d="M227.964 42.8C229.35 46.5333 232.55 48.4 237.564 48.4C240.817 48.4 243.377 47.3867 245.244 45.36L254.844 50.88C250.897 56.3733 245.084 59.12 237.404 59.12C230.684 59.12 225.297 57.12 221.244 53.12C217.244 49.12 215.244 44.08 215.244 38C215.244 31.9733 217.217 26.96 221.164 22.96C225.164 18.9067 230.284 16.88 236.524 16.88C242.337 16.88 247.164 18.9067 251.004 22.96C254.897 26.96 256.844 31.9733 256.844 38C256.844 39.7067 256.684 41.3067 256.364 42.8H227.964ZM227.724 33.84H244.924C243.75 29.6267 240.924 27.52 236.444 27.52C231.804 27.52 228.897 29.6267 227.724 33.84Z" fill="#044DFD"/>
<path d="M200.806 25.12C201.553 22.56 203.046 20.6133 205.286 19.28C207.579 17.8933 210.086 17.2 212.806 17.2V30.8C209.873 30.32 207.126 30.8267 204.566 32.32C202.059 33.76 200.806 36.2933 200.806 39.92V58H188.806V18H200.806V25.12Z" fill="#044DFD"/>
<path d="M165.506 59.12C159.426 59.12 154.359 57.0933 150.306 53.04C146.306 48.9867 144.306 43.9733 144.306 38C144.306 32.0267 146.306 27.0133 150.306 22.96C154.359 18.9067 159.426 16.88 165.506 16.88C169.346 16.88 172.866 17.8133 176.066 19.68C179.319 21.5467 181.826 24.0267 183.586 27.12L173.106 33.2C171.666 30.2133 169.079 28.72 165.346 28.72C162.733 28.72 160.573 29.6 158.866 31.36C157.159 33.0667 156.306 35.28 156.306 38C156.306 40.72 157.159 42.96 158.866 44.72C160.573 46.4267 162.733 47.28 165.346 47.28C169.133 47.28 171.719 45.7867 173.106 42.8L183.586 48.8C181.826 51.9467 179.346 54.4533 176.146 56.32C172.946 58.1867 169.399 59.12 165.506 59.12Z" fill="#044DFD"/>
<path d="M136.565 12.4C135.178 13.7867 133.498 14.48 131.525 14.48C129.551 14.48 127.845 13.7867 126.405 12.4C125.018 10.96 124.325 9.25335 124.325 7.28002C124.325 5.30669 125.018 3.62669 126.405 2.24002C127.845 0.800017 129.551 0.0800171 131.525 0.0800171C133.498 0.0800171 135.178 0.800017 136.565 2.24002C138.005 3.62669 138.725 5.30669 138.725 7.28002C138.725 9.25335 138.005 10.96 136.565 12.4ZM125.525 58V18H137.525V58H125.525Z" fill="#044DFD"/>
<path d="M118.73 29.52H110.49V43.68C110.49 45.28 111.13 46.2933 112.41 46.72C113.69 47.1467 115.797 47.28 118.73 47.12V58C111.104 58.8 105.824 58.08 102.89 55.84C99.9571 53.5467 98.4905 49.4933 98.4905 43.68V29.52H92.0905V18H98.4905V10.4L110.49 6.79999V18H118.73V29.52Z" fill="#044DFD"/>
<path d="M85.5492 12.4C84.1625 13.7867 82.4825 14.48 80.5092 14.48C78.5359 14.48 76.8292 13.7867 75.3892 12.4C74.0025 10.96 73.3092 9.25335 73.3092 7.28002C73.3092 5.30669 74.0025 3.62669 75.3892 2.24002C76.8292 0.800017 78.5359 0.0800171 80.5092 0.0800171C82.4825 0.0800171 84.1625 0.800017 85.5492 2.24002C86.9892 3.62669 87.7092 5.30669 87.7092 7.28002C87.7092 9.25335 86.9892 10.96 85.5492 12.4ZM74.5092 58V18H86.5092V58H74.5092Z" fill="#044DFD"/>
<path d="M56.8999 25.12C57.6466 22.56 59.1399 20.6133 61.3799 19.28C63.6732 17.8933 66.1799 17.2 68.8999 17.2V30.8C65.9666 30.32 63.2199 30.8267 60.6599 32.32C58.1532 33.76 56.8999 36.2933 56.8999 39.92V58H44.8999V18H56.8999V25.12Z" fill="#044DFD"/>
<path d="M21.5999 59.12C15.5199 59.12 10.4532 57.0933 6.3999 53.04C2.3999 48.9867 0.399902 43.9733 0.399902 38C0.399902 32.0267 2.3999 27.0133 6.3999 22.96C10.4532 18.9067 15.5199 16.88 21.5999 16.88C25.4399 16.88 28.9599 17.8133 32.1599 19.68C35.4132 21.5467 37.9199 24.0267 39.6799 27.12L29.1999 33.2C27.7599 30.2133 25.1732 28.72 21.4399 28.72C18.8266 28.72 16.6666 29.6 14.9599 31.36C13.2532 33.0667 12.3999 35.28 12.3999 38C12.3999 40.72 13.2532 42.96 14.9599 44.72C16.6666 46.4267 18.8266 47.28 21.4399 47.28C25.2266 47.28 27.8132 45.7867 29.1999 42.8L39.6799 48.8C37.9199 51.9467 35.4399 54.4533 32.2399 56.32C29.0399 58.1867 25.4932 59.12 21.5999 59.12Z" fill="#044DFD"/>
</svg>
