<svg width="399" height="64" viewBox="0 0 399 64" fill="none" xmlns="http://www.w3.org/2000/svg">
<path d="M385.687 17.92H398.487L385.687 57.92H374.487L368.087 36.56L361.687 57.92H350.487L337.687 17.92H350.487L356.247 39.36L362.487 17.92H373.687L379.927 39.36L385.687 17.92Z" fill="black"/>
<path d="M307.564 42.72C308.95 46.4533 312.15 48.32 317.164 48.32C320.417 48.32 322.977 47.3067 324.844 45.28L334.444 50.8C330.497 56.2933 324.684 59.04 317.004 59.04C310.284 59.04 304.897 57.04 300.844 53.04C296.844 49.04 294.844 44 294.844 37.92C294.844 31.8933 296.817 26.88 300.764 22.88C304.764 18.8267 309.884 16.8 316.124 16.8C321.937 16.8 326.764 18.8267 330.604 22.88C334.497 26.88 336.444 31.8933 336.444 37.92C336.444 39.6267 336.284 41.2267 335.964 42.72H307.564ZM307.324 33.76H324.524C323.35 29.5467 320.524 27.44 316.044 27.44C311.404 27.44 308.497 29.5467 307.324 33.76Z" fill="black"/>
<path d="M280.406 25.04C281.153 22.48 282.646 20.5333 284.886 19.2C287.179 17.8133 289.686 17.12 292.406 17.12V30.72C289.473 30.24 286.726 30.7467 284.166 32.24C281.659 33.68 280.406 36.2133 280.406 39.84V57.92H268.406V17.92H280.406V25.04Z" fill="black"/>
<path d="M245.106 59.04C239.026 59.04 233.959 57.0133 229.906 52.96C225.906 48.9067 223.906 43.8933 223.906 37.92C223.906 31.9467 225.906 26.9333 229.906 22.88C233.959 18.8267 239.026 16.8 245.106 16.8C248.946 16.8 252.466 17.7333 255.666 19.6C258.919 21.4666 261.426 23.9467 263.186 27.04L252.706 33.12C251.266 30.1333 248.679 28.64 244.946 28.64C242.333 28.64 240.173 29.52 238.466 31.28C236.759 32.9867 235.906 35.2 235.906 37.92C235.906 40.64 236.759 42.88 238.466 44.64C240.173 46.3467 242.333 47.2 244.946 47.2C248.733 47.2 251.319 45.7067 252.706 42.72L263.186 48.72C261.426 51.8667 258.946 54.3733 255.746 56.24C252.546 58.1067 248.999 59.04 245.106 59.04Z" fill="black"/>
<path d="M216.165 12.32C214.778 13.7067 213.098 14.4 211.125 14.4C209.151 14.4 207.445 13.7067 206.005 12.32C204.618 10.88 203.925 9.17334 203.925 7.2C203.925 5.22667 204.618 3.54667 206.005 2.16C207.445 0.72 209.151 0 211.125 0C213.098 0 214.778 0.72 216.165 2.16C217.605 3.54667 218.325 5.22667 218.325 7.2C218.325 9.17334 217.605 10.88 216.165 12.32ZM205.125 57.92V17.92H217.125V57.92H205.125Z" fill="black"/>
<path d="M198.33 29.44H190.09V43.6C190.09 45.2 190.73 46.2133 192.01 46.64C193.29 47.0666 195.397 47.2 198.33 47.04V57.92C190.704 58.72 185.424 58 182.49 55.76C179.557 53.4666 178.09 49.4133 178.09 43.6V29.44H171.69V17.92H178.09V10.32L190.09 6.71997V17.92H198.33V29.44Z" fill="black"/>
<path d="M165.149 12.32C163.762 13.7067 162.082 14.4 160.109 14.4C158.136 14.4 156.429 13.7067 154.989 12.32C153.602 10.88 152.909 9.17334 152.909 7.2C152.909 5.22667 153.602 3.54667 154.989 2.16C156.429 0.72 158.136 0 160.109 0C162.082 0 163.762 0.72 165.149 2.16C166.589 3.54667 167.309 5.22667 167.309 7.2C167.309 9.17334 166.589 10.88 165.149 12.32ZM154.109 57.92V17.92H166.109V57.92H154.109Z" fill="black"/>
<path d="M136.5 25.04C137.246 22.48 138.74 20.5333 140.98 19.2C143.273 17.8133 145.78 17.12 148.5 17.12V30.72C145.566 30.24 142.82 30.7467 140.26 32.24C137.753 33.68 136.5 36.2133 136.5 39.84V57.92H124.5V17.92H136.5V25.04Z" fill="black"/>
<path d="M101.2 59.04C95.1198 59.04 90.0531 57.0133 85.9998 52.96C81.9998 48.9067 79.9998 43.8933 79.9998 37.92C79.9998 31.9467 81.9998 26.9333 85.9998 22.88C90.0531 18.8267 95.1198 16.8 101.2 16.8C105.04 16.8 108.56 17.7333 111.76 19.6C115.013 21.4666 117.52 23.9467 119.28 27.04L108.8 33.12C107.36 30.1333 104.773 28.64 101.04 28.64C98.4264 28.64 96.2664 29.52 94.5598 31.28C92.8531 32.9867 91.9998 35.2 91.9998 37.92C91.9998 40.64 92.8531 42.88 94.5598 44.64C96.2664 46.3467 98.4264 47.2 101.04 47.2C104.826 47.2 107.413 45.7067 108.8 42.72L119.28 48.72C117.52 51.8667 115.04 54.3733 111.84 56.24C108.64 58.1067 105.093 59.04 101.2 59.04Z" fill="black"/>
<path fill-rule="evenodd" clip-rule="evenodd" d="M26.1291 38.7653L29.558 25.0362C34.8456 24.0487 39.332 20.1094 40.7085 14.598C42.1152 8.96565 39.8758 3.2862 35.477 6.10352e-05C51.5449 1.90912 63.9997 15.4564 63.9997 31.8849C63.9997 49.6216 49.4823 64 31.5742 64C16.2158 64 3.35137 53.4244 -0.000488281 39.2247C3.78397 44.9827 9.6963 49.3878 16.9615 51.1677C29.6801 54.2837 42.5177 48.3679 48.5829 37.5387L37.204 30.9469C34.9509 35.1601 30.806 38.0371 26.1291 38.7653ZM14.3647 35.7161C10.7101 32.8604 8.51763 28.4349 8.5724 23.7285L0.175068 23.8379C2.27531 15.7757 7.45742 8.94031 14.4029 4.63758C13.8708 5.63272 13.4518 6.70772 13.1664 7.85028C11.8253 13.22 13.7983 18.6326 17.797 21.9733L14.3647 35.7161ZM25.7208 16.0953C28.437 16.7608 31.1837 15.1193 31.8556 12.4291C32.5275 9.73881 30.8702 7.01844 28.1539 6.35296C25.4377 5.68749 22.691 7.32891 22.0191 10.0192C21.3472 12.7095 23.0045 15.4298 25.7208 16.0953ZM50.8269 19.8418C50.8269 21.5046 49.4659 22.8525 47.7871 22.8525C46.1082 22.8525 44.7472 21.5046 44.7472 19.8418C44.7472 18.1789 46.1082 16.831 47.7871 16.831C49.4659 16.831 50.8269 18.1789 50.8269 19.8418ZM53.8669 35.8993C56.665 35.8993 58.9333 33.6527 58.9333 30.8813C58.9333 28.11 56.665 25.8633 53.8669 25.8633C51.0687 25.8633 48.8004 28.11 48.8004 30.8813C48.8004 33.6527 51.0687 35.8993 53.8669 35.8993Z" fill="url(#paint0_radial_42_56)"/>
<defs>
<radialGradient id="paint0_radial_42_56" cx="0" cy="0" r="1" gradientUnits="userSpaceOnUse" gradientTransform="translate(17.3878 64.0001) rotate(-57.7464) scale(71.2028 70.8165)">
<stop stop-color="#00E59F"/>
<stop offset="1" stop-color="#044DFD"/>
</radialGradient>
</defs>
</svg>
